# xmcd
# 
# Track frame offsets:
#     150
#     25737
#     42926
#     59826
#     84881
#     100070
#     114297
#     129509
#     149595
#     160526
#     179289
#     197959
# 
# Disc length: 2901
# 
# Revision: 0
# Processed by: cddbd v1.5.2PL0 Copyright (c) Steve Scherf et al.
# Submitted via: fre:ac v1.0.31
# 
DISCID=9d0b530c
DTITLE=Music Pilgrim Trio (feat. Vladimir Fridman, Seth Kibel and Bob Abbott) - Savor The Journey
DYEAR=2015
DGENRE=Jazz
TTITLE0=Libertango
TTITLE1=Smile
TTITLE2=Yiddishe Mama
TTITLE3=Journey Among Friends
TTITLE4=Por Una Cabeza
TTITLE5=A Moment
TTITLE6=No More Blues
TTITLE7=Di Grine Kuzine
TTITLE8=New Freilach
TTITLE9=Moscow Windows
TTITLE10=August Samba
TTITLE11=Over The Rainbow
EXTD=
EXTT0=
EXTT1=
EXTT2=
EXTT3=
EXTT4=
EXTT5=
EXTT6=
EXTT7=
EXTT8=
EXTT9=
EXTT10=
EXTT11=
PLAYORDER=
